<?xml version="1.0" encoding="UTF-8" standalone="no"?>
<svg xmlns:dc="http://purl.org/dc/elements/1.1/" xmlns:cc="http://creativecommons.org/ns#" xmlns:rdf="http://www.w3.org/1999/02/22-rdf-syntax-ns#" xmlns:svg="http://www.w3.org/2000/svg" xmlns="http://www.w3.org/2000/svg" xmlns:sodipodi="http://sodipodi.sourceforge.net/DTD/sodipodi-0.dtd" xmlns:inkscape="http://www.inkscape.org/namespaces/inkscape" height="238.63" width="827.53003" xml:space="preserve" viewBox="0 0 827.53003 238.63" y="0px" x="0px" id="Layer_1" version="1.1"><metadata id="metadata3320"/><defs id="defs3318"/>
<style id="style2494" type="text/css">
	.st0{fill:#6D6E71;stroke:#000000;stroke-miterlimit:10;}
	.st1{fill:#E6E7E8;stroke:#000000;stroke-miterlimit:10;}
	.st2{fill:url(#SVGID_1_);stroke:#000000;stroke-width:2;stroke-miterlimit:8;}
	.st3{fill:none;stroke:#000000;stroke-linejoin:round;stroke-miterlimit:10;}
	.st4{fill:none;stroke:#000000;stroke-width:2;stroke-linejoin:round;stroke-miterlimit:10;}
	.st5{fill:#BE1E2D;}
	.st6{fill:none;stroke:#BE1E2D;stroke-linejoin:round;stroke-miterlimit:10;}
	.st7{fill:none;stroke:#BE1E2D;stroke-width:2;stroke-linejoin:round;stroke-miterlimit:10;}
	.st8{fill:url(#SVGID_2_);stroke:#000000;stroke-width:0.75;stroke-miterlimit:8;}
	.st9{fill:none;stroke:#ED1C24;stroke-width:0.75;stroke-miterlimit:8;}
	.st10{fill:#FFFFFF;stroke:#000000;stroke-width:2;stroke-miterlimit:8;}
	.st11{fill:none;stroke:#000000;stroke-width:2;stroke-miterlimit:8;}
	.st12{fill:none;stroke:#000000;stroke-miterlimit:8;}
	.st13{fill:url(#SVGID_3_);stroke:#009444;stroke-width:0.5;stroke-miterlimit:8;}
	.st14{fill:url(#SVGID_4_);stroke:#006838;stroke-width:0.5;stroke-miterlimit:8;}
	.st15{fill:#6D6E71;}
	.st16{fill:none;stroke:#000000;stroke-width:2;stroke-miterlimit:10;}
	.st17{fill:#F4D242;}
	.st18{fill:#603913;}
	.st19{fill:#808184;}
	.st20{fill:#FFFFFF;}
	.st21{fill:url(#SVGID_5_);stroke:#000000;stroke-miterlimit:10;}
	.st22{fill:#C2B59B;}
	.st23{fill:#9B8579;stroke:#000000;stroke-miterlimit:10;}
	.st24{fill:url(#SVGID_6_);stroke:#000000;stroke-miterlimit:10;}
	.st25{fill:url(#SVGID_7_);stroke:#000000;stroke-miterlimit:10;}
	.st26{opacity:0.86;fill:#2B3990;enable-background:new    ;}
	.st27{fill:none;stroke:#000000;stroke-miterlimit:10;}
	.st28{fill:#F9ED32;stroke:#000000;stroke-width:0.2;stroke-miterlimit:10;}
	.st29{font-family:'ArialMT';}
	.st30{font-size:24px;}
</style>


<radialGradient gradientUnits="userSpaceOnUse" gradientTransform="matrix(1.0565,0,0,-1.1803,179.3204,1079.716)" fy="749.91278" fx="-154.1552" r="949.1004" cy="813.69031" cx="221.9099" id="SVGID_1_">
	<stop id="stop2500" style="stop-color:#FFFFFF" offset="0"/>
	<stop id="stop2502" style="stop-color:#E6E7E8" offset="1"/>
</radialGradient>
<rect style="fill:url(#SVGID_1_)" id="rect2505" height="236.63" width="825.53003" class="st2" y="1" x="1"/>
<g transform="translate(103.05,491.32001)" id="g3092">
	<g id="g3090">
		<g id="g2509">
			<path id="path2507" d="m 613.24,-310.25 c -4.34,3.21 -7.85,4.42 -9.81,3.47 -1.73,-0.84 -0.62,-3.16 3.48,-6.34 4.18,-3.21 7.83,-4.33 9.72,-3.41 1.96,0.95 0.67,3.27 -3.39,6.28 z m -5.13,-2.26 c -3.26,2.48 -4.4,4.24 -3.3,4.77 1.23,0.6 3.87,-0.64 7.12,-3.05 3.13,-2.33 4.6,-4.14 3.3,-4.78 -1.09,-0.54 -3.7,0.46 -7.12,3.06 z"/>
		</g>
		<g id="g2515">
			<path id="path2511" d="m 551.75,-342.17 c -0.01,0 -0.02,-0.01 -0.03,-0.01 -0.87,0.13 -1.73,0.26 -2.59,0.39 0.26,-0.4 0.52,-0.79 0.78,-1.19 1.08,-0.16 2.17,-0.32 3.25,-0.47 0.37,0.14 0.74,0.27 1.1,0.41 -3.36,3.53 -6.72,7.06 -10.08,10.59 -0.4,-0.15 -0.8,-0.3 -1.2,-0.45 2.93,-3.09 5.85,-6.18 8.77,-9.27 z"/>
			<path id="path2513" d="m 558.96,-334.19 c -3.57,3.55 -6.69,5.06 -8.7,4.28 -1.78,-0.68 -1.12,-3.07 2.22,-6.57 3.42,-3.54 6.69,-4.96 8.63,-4.21 2.01,0.77 1.19,3.18 -2.15,6.5 z m -5.23,-1.79 c -2.67,2.74 -3.45,4.57 -2.32,5 1.27,0.49 3.56,-0.96 6.22,-3.64 2.57,-2.57 3.65,-4.5 2.32,-5.01 -1.13,-0.43 -3.43,0.78 -6.22,3.65 z"/>
		</g>
		<g id="g2521">
			<path id="path2517" d="m 481.82,-352.34 c 0.21,-0.32 0.41,-0.63 0.62,-0.95 0.59,-0.3 1.18,-0.61 1.77,-0.91 4.23,-2.13 6.34,-3.29 7.5,-5.01 0.77,-1.16 1.01,-2.36 -0.45,-2.75 -0.89,-0.24 -1.97,0.09 -2.7,0.41 0.1,-0.4 0.19,-0.8 0.29,-1.2 1.11,-0.49 2.4,-0.72 3.53,-0.42 2.11,0.57 1.87,2.5 0.77,4.13 -1.41,2.1 -3.85,3.44 -7.37,5.22 -0.44,0.21 -0.87,0.43 -1.31,0.64 -0.01,0.01 -0.01,0.02 -0.02,0.03 1.41,0.38 2.82,0.76 4.23,1.15 -0.29,0.43 -0.57,0.85 -0.86,1.28 -2.01,-0.54 -4.01,-1.09 -6,-1.62 z"/>
			<path id="path2519" d="m 499.52,-354.32 c -2.72,3.84 -5.4,5.61 -7.47,5.02 -1.82,-0.52 -1.65,-2.94 0.87,-6.7 2.58,-3.81 5.42,-5.52 7.41,-4.95 2.07,0.58 1.74,3.04 -0.81,6.63 z m -5.31,-1.3 c -2.02,2.95 -2.41,4.84 -1.26,5.16 1.3,0.37 3.2,-1.28 5.23,-4.16 1.96,-2.78 2.63,-4.78 1.26,-5.17 -1.16,-0.33 -3.12,1.08 -5.23,4.17 z"/>
		</g>
		<g id="g2527">
			<path id="path2523" d="m 423.31,-367.14 c 0.25,0.36 0.91,0.97 1.81,1.12 1.66,0.29 2.74,-0.94 3.14,-1.94 0.7,-1.68 -0.23,-2.61 -1.5,-2.84 -0.24,-0.04 -0.49,-0.09 -0.73,-0.13 0.17,-0.41 0.33,-0.81 0.5,-1.22 0.25,0.04 0.49,0.09 0.74,0.13 0.96,0.17 2.43,-0.22 3.03,-1.64 0.4,-0.96 0.26,-1.89 -0.98,-2.11 -0.79,-0.14 -1.73,0.15 -2.3,0.45 0.04,-0.41 0.09,-0.83 0.13,-1.24 0.71,-0.37 1.9,-0.66 2.98,-0.47 1.96,0.34 2.25,1.9 1.63,3.36 -0.53,1.23 -1.58,2.17 -3,2.49 -0.01,0.01 -0.01,0.02 -0.02,0.04 1.08,0.51 1.58,1.79 0.86,3.46 -0.82,1.91 -2.72,3.37 -5.01,2.97 -1.07,-0.19 -1.83,-0.77 -2.15,-1.24 0.3,-0.39 0.59,-0.79 0.87,-1.19 z"/>
			<path id="path2525" d="m 438.87,-368.89 c -1.86,4.04 -4.08,6.04 -6.18,5.65 -1.85,-0.35 -2.16,-2.76 -0.48,-6.72 1.73,-4.01 4.12,-5.95 6.15,-5.57 2.09,0.4 2.25,2.86 0.51,6.64 z m -5.36,-0.81 c -1.36,3.1 -1.37,5.01 -0.19,5.23 1.32,0.25 2.82,-1.55 4.2,-4.59 1.33,-2.93 1.58,-4.97 0.19,-5.23 -1.17,-0.23 -2.78,1.34 -4.2,4.59 z"/>
		</g>
		<g id="g2533">
			<path id="path2529" d="m 243.86,-383.24 c -0.28,0.01 -0.63,0.06 -1,0.17 -2.03,0.63 -2.7,2.65 -2.46,4.7 0.02,0 0.03,0 0.05,0 0.29,-0.82 0.96,-1.54 2.06,-1.65 1.75,-0.17 3.32,1.29 3.82,3.69 0.47,2.25 -0.28,4.44 -2.27,4.63 -2.05,0.2 -3.87,-1.7 -4.63,-4.89 -0.57,-2.41 -0.33,-4.39 0.38,-5.7 0.6,-1.08 1.56,-1.81 2.79,-2.12 0.38,-0.11 0.72,-0.16 0.97,-0.19 0.1,0.46 0.19,0.91 0.29,1.36 z m 1.16,7.13 c -0.38,-1.76 -1.41,-2.74 -2.64,-2.62 -0.8,0.08 -1.4,0.77 -1.56,1.7 -0.05,0.2 -0.05,0.45 0.02,0.75 0.5,2.02 1.57,3.44 2.94,3.3 1.12,-0.11 1.62,-1.37 1.24,-3.13 z"/>
			<path id="path2531" d="m 253.58,-379.14 c 0.77,4.19 -0.01,6.6 -2.13,6.78 -1.87,0.16 -3.61,-1.98 -4.5,-6.04 -0.87,-4.12 0.11,-6.52 2.15,-6.7 2.12,-0.19 3.75,2.03 4.48,5.96 z m -5.3,0.63 c 0.66,3.2 1.8,4.95 2.99,4.85 1.33,-0.11 1.59,-2.15 0.99,-5.3 -0.58,-3.03 -1.59,-4.97 -2.99,-4.85 -1.18,0.1 -1.68,1.95 -0.99,5.3 z"/>
		</g>
		<g id="g2539">
			<path id="path2535" d="m 181.61,-375.87 c 0.15,0.36 0.31,0.71 0.46,1.07 0.14,3.89 0.34,7.77 0.59,11.65 -0.44,0.08 -0.89,0.17 -1.33,0.25 -0.23,-3.77 -0.4,-7.55 -0.52,-11.33 -0.01,-0.01 -0.01,-0.02 -0.02,-0.04 -1.61,0.3 -3.22,0.6 -4.83,0.91 -0.2,-0.45 -0.41,-0.89 -0.61,-1.34 2.09,-0.4 4.18,-0.79 6.26,-1.17 z"/>
			<path id="path2537" d="m 191.99,-371.42 c 1.65,4.08 1.36,6.54 -0.74,6.91 -1.85,0.33 -4.05,-1.63 -5.79,-5.57 -1.73,-4.01 -1.25,-6.47 0.78,-6.83 2.09,-0.38 4.2,1.67 5.75,5.49 z m -5.21,1.11 c 1.33,3.11 2.84,4.74 4.02,4.53 1.32,-0.23 1.16,-2.28 -0.1,-5.34 -1.21,-2.95 -2.63,-4.78 -4.02,-4.54 -1.18,0.21 -1.29,2.1 0.1,5.35 z"/>
		</g>
		<g id="g2545">
			<path id="path2541" d="m 365.99,-372.54 c 0.22,-1.12 0.45,-2.23 0.67,-3.35 -1.51,-0.13 -3.01,-0.25 -4.52,-0.37 0.07,-0.37 0.13,-0.73 0.2,-1.1 1.93,-2.51 3.91,-5.01 5.92,-7.5 0.49,0.04 0.98,0.08 1.47,0.13 -0.52,2.55 -1.04,5.1 -1.56,7.65 0.46,0.04 0.91,0.08 1.37,0.12 -0.09,0.44 -0.18,0.87 -0.27,1.31 -0.45,-0.04 -0.91,-0.08 -1.36,-0.12 -0.23,1.12 -0.46,2.23 -0.68,3.35 -0.42,-0.05 -0.83,-0.08 -1.24,-0.12 z m 0.93,-4.66 c 0.27,-1.37 0.55,-2.74 0.82,-4.11 0.13,-0.64 0.27,-1.29 0.43,-1.93 -0.02,0 -0.03,0 -0.05,0 -0.45,0.69 -0.8,1.2 -1.19,1.75 -1.08,1.33 -2.15,2.66 -3.21,3.99 0,0.01 0,0.03 -0.01,0.04 1.08,0.08 2.14,0.17 3.21,0.26 z"/>
			<path id="path2543" d="m 377.41,-377.88 c -0.99,4.17 -2.74,6.35 -4.86,6.15 -1.87,-0.18 -2.66,-2.54 -1.84,-6.61 0.87,-4.12 2.8,-6.26 4.84,-6.07 2.12,0.2 2.78,2.63 1.86,6.53 z m -5.37,-0.32 c -0.69,3.2 -0.31,5.08 0.87,5.19 1.33,0.13 2.43,-1.79 3.15,-4.93 0.7,-3.02 0.53,-5.07 -0.87,-5.2 -1.19,-0.11 -2.43,1.59 -3.15,4.94 z"/>
		</g>
		<g id="g2551">
			<path id="path2547" d="m 307.06,-385.99 c -1.27,0 -2.54,0.01 -3.82,0.02 -0.11,1.06 -0.22,2.13 -0.33,3.19 0.23,-0.04 0.44,-0.08 0.81,-0.08 0.76,-0.01 1.53,0.2 2.14,0.66 0.78,0.55 1.42,1.62 1.43,3.19 0,2.42 -1.48,4.24 -3.57,4.25 -1.05,0.01 -1.95,-0.37 -2.42,-0.74 0.1,-0.43 0.2,-0.86 0.3,-1.28 0.41,0.3 1.21,0.68 2.09,0.67 1.23,-0.01 2.28,-1.04 2.27,-2.71 -0.03,-1.6 -0.89,-2.75 -2.86,-2.73 -0.56,0 -1,0.09 -1.36,0.15 0.17,-1.99 0.34,-3.98 0.51,-5.96 1.6,-0.01 3.21,-0.02 4.81,-0.03 -0.01,0.46 -0.01,0.93 0,1.4 z"/>
			<path id="path2549" d="m 315.52,-381.3 c -0.11,4.22 -1.38,6.53 -3.51,6.52 -1.88,-0.01 -3.15,-2.28 -3.18,-6.39 0,-4.16 1.46,-6.45 3.51,-6.44 2.12,0.02 3.28,2.36 3.18,6.31 z m -5.35,0.16 c -0.02,3.23 0.75,5.06 1.94,5.07 1.34,0.01 2.02,-1.99 2.08,-5.16 0.06,-3.06 -0.53,-5.07 -1.94,-5.07 -1.19,-0.01 -2.07,1.78 -2.08,5.16 z"/>
		</g>
		<g id="g2557">
			<path id="path2553" d="m 119.14,-351.33 c -1.01,-1.42 -1.01,-2.64 -0.25,-3.56 -0.02,-0.02 -0.03,-0.03 -0.05,-0.05 -1.47,-0.29 -2.62,-1.13 -3.31,-2.1 -1.27,-1.79 -0.82,-3.38 0.89,-3.87 1.9,-0.54 3.78,0.58 4.75,1.99 0.66,0.96 0.96,2.1 0.24,3.1 0.01,0.02 0.02,0.03 0.04,0.05 1.58,0.22 2.99,1.01 3.93,2.39 1.34,1.98 0.85,3.69 -0.93,4.2 -1.96,0.56 -4.13,-0.5 -5.31,-2.15 z m 5.05,-1.52 c -0.95,-1.38 -2.21,-1.82 -3.8,-1.88 -0.85,0.7 -0.84,1.74 -0.08,2.82 0.77,1.16 2.2,1.96 3.39,1.62 1.14,-0.33 1.29,-1.39 0.49,-2.56 z m -7.49,-4.65 c 0.79,1.13 1.95,1.53 3.29,1.56 0.6,-0.57 0.75,-1.44 0.04,-2.47 -0.62,-0.91 -1.74,-1.72 -2.92,-1.38 -1.09,0.31 -1.1,1.32 -0.41,2.29 z"/>
			<path id="path2555" d="m 131.12,-358.12 c 2.52,3.89 2.72,6.35 0.65,6.91 -1.83,0.5 -4.47,-1.24 -7.05,-4.99 -2.59,-3.81 -2.59,-6.3 -0.6,-6.84 2.08,-0.56 4.64,1.27 7,4.92 z m -5.09,1.58 c 1.99,2.96 3.87,4.43 5.03,4.12 1.3,-0.35 0.72,-2.37 -1.19,-5.28 -1.84,-2.81 -3.66,-4.5 -5.03,-4.12 -1.16,0.31 -0.89,2.18 1.19,5.28 z"/>
		</g>
		<g id="g2563">
			<path id="path2559" d="m 62.84,-330.05 c 0.3,-0.07 0.58,-0.23 0.95,-0.44 0.61,-0.39 0.95,-0.99 0.92,-1.76 -0.01,-0.86 -0.47,-1.96 -1.52,-3.27 -0.01,0.01 -0.03,0.01 -0.04,0.02 0.18,0.91 -0.15,1.61 -1.08,1.97 -1.67,0.64 -4.16,-0.35 -5.95,-2.13 -1.99,-1.97 -2.43,-4.22 -0.47,-4.97 1.96,-0.75 4.86,0.54 7.47,3.23 2.25,2.32 3.14,4.2 3.21,5.55 0.07,1.06 -0.42,1.92 -1.28,2.43 -0.37,0.25 -0.75,0.42 -1.06,0.52 -0.37,-0.38 -0.76,-0.76 -1.15,-1.15 z m -5.55,-6.19 c 1.3,1.3 2.92,1.95 4.01,1.53 0.85,-0.33 1.04,-1.05 0.76,-1.81 -0.05,-0.16 -0.17,-0.34 -0.39,-0.56 -1.75,-1.8 -3.7,-2.94 -5.05,-2.42 -1.09,0.42 -0.81,1.78 0.67,3.26 z"/>
			<path id="path2561" d="m 71.37,-339.25 c 3.37,3.62 4.07,6.05 2.04,6.8 -1.79,0.67 -4.86,-0.81 -8.26,-4.28 -3.42,-3.54 -3.92,-6.01 -1.97,-6.73 2.03,-0.76 5.04,0.81 8.19,4.21 z m -4.93,2.05 c 2.64,2.75 4.87,4.03 6,3.61 1.27,-0.47 0.27,-2.41 -2.27,-5.13 -2.45,-2.62 -4.66,-4.11 -6,-3.62 -1.14,0.42 -0.5,2.26 2.27,5.14 z"/>
		</g>
		<g id="g2571">
			<path id="path2565" d="m -5.69,-311.31 c -0.01,0 -0.02,0.01 -0.03,0.01 -0.13,0.56 -0.25,1.12 -0.37,1.68 -0.53,-0.28 -1.05,-0.56 -1.58,-0.84 0.16,-0.7 0.32,-1.4 0.49,-2.1 0.35,-0.18 0.71,-0.36 1.07,-0.53 4.3,3.12 8.6,6.24 12.9,9.36 -0.39,0.19 -0.77,0.39 -1.16,0.58 -3.77,-2.71 -7.54,-5.43 -11.32,-8.16 z"/>
			<path id="path2567" d="m 9.53,-313.09 c 4.25,3.25 5.47,5.58 3.51,6.54 -1.73,0.84 -5.24,-0.3 -9.49,-3.4 -4.29,-3.16 -5.3,-5.56 -3.41,-6.49 1.95,-0.96 5.42,0.3 9.39,3.35 z m -4.74,2.54 c 3.31,2.46 5.9,3.5 6.99,2.97 1.23,-0.6 -0.2,-2.43 -3.41,-4.86 -3.09,-2.35 -5.7,-3.61 -7,-2.97 -1.08,0.53 -0.04,2.29 3.42,4.86 z"/>
			<path id="path2569" d="m 16.73,-316.51 c 4.14,3.3 5.31,5.65 3.34,6.58 -1.74,0.82 -5.19,-0.36 -9.35,-3.52 -4.19,-3.21 -5.14,-5.62 -3.24,-6.52 1.96,-0.93 5.36,0.37 9.25,3.46 z m -4.77,2.49 c 3.23,2.5 5.78,3.57 6.88,3.05 1.24,-0.59 -0.15,-2.43 -3.28,-4.9 -3.01,-2.38 -5.58,-3.67 -6.88,-3.06 -1.1,0.53 -0.1,2.3 3.28,4.91 z"/>
		</g>
		<path id="path2573" d="m -22.25,-333.76 c 208.74,-101.65 452.7,-101.65 661.44,0" class="st3"/>
		<path id="path2575" d="m 620.58,-327.19 c 4.11,-3.2 8.22,-6.39 12.33,-9.59" class="st3"/>
		<path id="path2577" d="m 614.53,-330.03 c 4.03,-3.23 8.06,-6.47 12.1,-9.7" class="st3"/>
		<path id="path2579" d="m 608.45,-332.82 c 3.95,-3.27 7.9,-6.54 11.86,-9.81" class="st3"/>
		<path id="path2581" d="m 602.36,-335.55 c 3.87,-3.31 7.74,-6.61 11.61,-9.92" class="st3"/>
		<path id="path2583" d="m 589.98,-332.69 c 5.88,-5.18 11.76,-10.36 17.64,-15.55" class="st3"/>
		<path id="path2585" d="m 590.12,-340.83 c 3.71,-3.38 7.42,-6.75 11.13,-10.13" class="st3"/>
		<path id="path2587" d="m 583.97,-343.38 c 3.63,-3.41 7.26,-6.82 10.89,-10.23" class="st3"/>
		<path id="path2589" d="m 577.81,-345.88 c 3.55,-3.44 7.1,-6.88 10.64,-10.32" class="st3"/>
		<path id="path2591" d="m 571.63,-348.31 c 3.47,-3.47 6.93,-6.95 10.4,-10.42" class="st3"/>
		<path id="path2593" d="m 559.83,-344.89 c 5.25,-5.44 10.5,-10.87 15.75,-16.31" class="st4"/>
		<path id="path2595" d="m 559.21,-353 c 3.3,-3.54 6.61,-7.07 9.91,-10.61" class="st3"/>
		<path id="path2597" d="m 552.98,-355.26 c 3.22,-3.57 6.44,-7.13 9.66,-10.7" class="st3"/>
		<path id="path2599" d="m 546.73,-357.46 c 3.14,-3.59 6.28,-7.19 9.42,-10.78" class="st3"/>
		<path id="path2601" d="m 540.47,-359.6 c 3.06,-3.62 6.11,-7.24 9.17,-10.87" class="st3"/>
		<path id="path2603" d="m 529.28,-355.65 c 4.61,-5.66 9.23,-11.32 13.84,-16.99" class="st3"/>
		<path id="path2605" d="m 527.91,-363.71 c 2.89,-3.68 5.78,-7.35 8.67,-11.03" class="st3"/>
		<path id="path2607" d="m 521.6,-365.68 c 2.81,-3.7 5.62,-7.4 8.42,-11.11" class="st3"/>
		<path id="path2609" d="m 515.29,-367.58 c 2.72,-3.73 5.45,-7.46 8.17,-11.18" class="st3"/>
		<path id="path2611" d="m 508.95,-369.43 c 2.64,-3.75 5.28,-7.5 7.92,-11.26" class="st3"/>
		<path id="path2613" d="m 498.38,-364.98 c 3.97,-5.86 7.93,-11.71 11.9,-17.57" class="st4"/>
		<path id="path2615" d="m 496.26,-372.95 c 2.47,-3.8 4.95,-7.6 7.42,-11.39" class="st3"/>
		<path id="path2617" d="m 489.89,-374.62 c 2.39,-3.82 4.78,-7.64 7.17,-11.46" class="st3"/>
		<path id="path2619" d="m 483.51,-376.24 c 2.31,-3.84 4.61,-7.68 6.92,-11.52" class="st3"/>
		<path id="path2621" d="m 477.12,-377.79 c 2.22,-3.86 4.44,-7.72 6.67,-11.59" class="st3"/>
		<path id="path2623" d="m 467.19,-372.87 c 3.32,-6.02 6.63,-12.04 9.95,-18.06" class="st3"/>
		<path id="path2625" d="m 464.31,-380.73 c 2.05,-3.9 4.11,-7.8 6.16,-11.7" class="st3"/>
		<path id="path2627" d="m 457.89,-382.11 c 1.97,-3.92 3.94,-7.84 5.91,-11.76" class="st3"/>
		<path id="path2629" d="m 451.46,-383.43 c 1.88,-3.94 3.77,-7.87 5.65,-11.81" class="st3"/>
		<path id="path2631" d="m 445.02,-384.69 c 1.8,-3.95 3.6,-7.91 5.4,-11.86" class="st3"/>
		<path id="path2633" d="m 435.74,-379.33 c 2.66,-6.16 5.32,-12.31 7.98,-18.47" class="st4"/>
		<path id="path2635" d="m 432.12,-387.03 c 1.63,-3.98 3.26,-7.97 4.89,-11.95" class="st3"/>
		<path id="path2637" d="m 425.66,-388.12 c 1.54,-4 3.09,-8 4.63,-11.99" class="st3"/>
		<path id="path2639" d="m 419.19,-389.15 c 1.46,-4.01 2.92,-8.02 4.38,-12.03" class="st3"/>
		<path id="path2641" d="m 412.71,-390.11 c 1.37,-4.02 2.75,-8.05 4.12,-12.07" class="st3"/>
		<path id="path2643" d="m 404.1,-384.35 c 2,-6.26 4,-12.52 5.99,-18.78" class="st3"/>
		<path id="path2645" d="m 399.74,-391.87 c 1.2,-4.05 2.4,-8.1 3.61,-12.14" class="st3"/>
		<path id="path2647" d="m 393.24,-392.67 c 1.12,-4.06 2.23,-8.12 3.35,-12.17" class="st3"/>
		<path id="path2649" d="m 386.74,-393.4 c 1.03,-4.07 2.06,-8.14 3.09,-12.2" class="st3"/>
		<path id="path2651" d="m 380.24,-394.07 c 0.95,-4.08 1.89,-8.15 2.84,-12.23" class="st3"/>
		<path id="path2653" d="m 372.31,-387.94 c 1.33,-6.34 2.67,-12.67 4,-19.01" class="st4"/>
		<path id="path2655" d="m 367.21,-395.25 c 0.77,-4.09 1.55,-8.18 2.32,-12.28" class="st3"/>
		<path id="path2657" d="m 360.7,-395.75 c 0.69,-4.1 1.38,-8.2 2.06,-12.3" class="st3"/>
		<path id="path2659" d="m 354.18,-396.19 c 0.6,-4.1 1.2,-8.21 1.81,-12.31" class="st3"/>
		<path id="path2661" d="m 347.65,-396.57 c 0.52,-4.11 1.03,-8.22 1.55,-12.33" class="st3"/>
		<path id="path2663" d="m 340.41,-390.09 c 0.67,-6.38 1.33,-12.76 2,-19.14" class="st3"/>
		<path id="path2665" d="m 334.6,-397.15 c 0.34,-4.12 0.69,-8.23 1.03,-12.35" class="st3"/>
		<path id="path2667" d="m 328.07,-397.36 c 0.26,-4.12 0.52,-8.24 0.77,-12.36" class="st3"/>
		<path id="path2669" d="m 321.54,-397.51 c 0.17,-4.12 0.34,-8.24 0.52,-12.37" class="st3"/>
		<path id="path2671" d="m 315,-397.59 c 0.09,-4.12 0.17,-8.25 0.26,-12.37" class="st3"/>
		<path id="path2673" d="m 308.47,-390.81 c 0,-6.4 0,-12.79 0,-19.19" class="st4"/>
		<path id="path2675" d="m 301.94,-397.59 c -0.09,-4.12 -0.17,-8.25 -0.26,-12.37" class="st3"/>
		<path id="path2677" d="m 295.41,-397.51 c -0.17,-4.12 -0.34,-8.24 -0.52,-12.37" class="st3"/>
		<path id="path2679" d="m 288.88,-397.36 c -0.26,-4.12 -0.52,-8.24 -0.77,-12.36" class="st3"/>
		<path id="path2681" d="m 282.35,-397.15 c -0.34,-4.12 -0.69,-8.23 -1.03,-12.35" class="st3"/>
		<path id="path2683" d="m 276.53,-390.09 c -0.67,-6.38 -1.33,-12.76 -2,-19.14" class="st3"/>
		<path id="path2685" d="m 269.29,-396.57 c -0.52,-4.11 -1.03,-8.22 -1.55,-12.33" class="st3"/>
		<path id="path2687" d="m 262.77,-396.19 c -0.6,-4.1 -1.2,-8.21 -1.81,-12.31" class="st3"/>
		<path id="path2689" d="m 256.25,-395.75 c -0.69,-4.1 -1.38,-8.2 -2.06,-12.3" class="st3"/>
		<path id="path2691" d="m 249.73,-395.25 c -0.77,-4.09 -1.55,-8.18 -2.32,-12.28" class="st3"/>
		<path id="path2693" d="m 244.64,-387.94 c -1.33,-6.34 -2.67,-12.67 -4,-19.01" class="st4"/>
		<path id="path2695" d="m 236.71,-394.07 c -0.95,-4.08 -1.89,-8.15 -2.84,-12.23" class="st3"/>
		<path id="path2697" d="m 230.2,-393.4 c -1.03,-4.07 -2.06,-8.14 -3.09,-12.2" class="st3"/>
		<path id="path2699" d="m 223.7,-392.67 c -1.12,-4.06 -2.23,-8.12 -3.35,-12.17" class="st3"/>
		<path id="path2701" d="m 217.21,-391.87 c -1.2,-4.05 -2.4,-8.1 -3.61,-12.14" class="st3"/>
		<path id="path2703" d="m 212.85,-384.35 c -2,-6.26 -4,-12.52 -5.99,-18.78" class="st3"/>
		<path id="path2705" d="m 204.23,-390.11 c -1.37,-4.02 -2.75,-8.05 -4.12,-12.07" class="st3"/>
		<path id="path2707" d="m 197.76,-389.15 c -1.46,-4.01 -2.92,-8.02 -4.38,-12.03" class="st3"/>
		<path id="path2709" d="m 191.29,-388.12 c -1.54,-4 -3.09,-8 -4.63,-11.99" class="st3"/>
		<path id="path2711" d="m 184.82,-387.03 c -1.63,-3.98 -3.26,-7.97 -4.89,-11.95" class="st3"/>
		<path id="path2713" d="m 181.2,-379.33 c -2.66,-6.16 -5.32,-12.31 -7.98,-18.47" class="st4"/>
		<path id="path2715" d="m 171.92,-384.69 c -1.8,-3.95 -3.6,-7.91 -5.4,-11.86" class="st3"/>
		<path id="path2717" d="m 165.48,-383.43 c -1.88,-3.94 -3.77,-7.87 -5.65,-11.81" class="st3"/>
		<path id="path2719" d="m 159.05,-382.11 c -1.97,-3.92 -3.94,-7.84 -5.91,-11.76" class="st3"/>
		<path id="path2721" d="m 152.63,-380.73 c -2.05,-3.9 -4.11,-7.8 -6.16,-11.7" class="st3"/>
		<path id="path2723" d="m 149.76,-372.87 c -3.32,-6.02 -6.63,-12.04 -9.95,-18.06" class="st3"/>
		<path id="path2725" d="m 139.82,-377.79 c -2.22,-3.86 -4.44,-7.72 -6.67,-11.59" class="st3"/>
		<path id="path2727" d="m 133.43,-376.24 c -2.31,-3.84 -4.61,-7.68 -6.92,-11.52" class="st3"/>
		<path id="path2729" d="m 127.06,-374.62 c -2.39,-3.82 -4.78,-7.64 -7.17,-11.46" class="st3"/>
		<path id="path2731" d="m 120.69,-372.95 c -2.47,-3.8 -4.95,-7.6 -7.42,-11.39" class="st3"/>
		<path id="path2733" d="m 118.56,-364.98 c -3.97,-5.86 -7.93,-11.71 -11.9,-17.57" class="st4"/>
		<path id="path2735" d="m 107.99,-369.43 c -2.64,-3.75 -5.28,-7.5 -7.92,-11.26" class="st3"/>
		<path id="path2737" d="m 101.66,-367.58 c -2.72,-3.73 -5.45,-7.46 -8.17,-11.18" class="st3"/>
		<path id="path2739" d="m 95.34,-365.68 c -2.81,-3.7 -5.62,-7.4 -8.42,-11.11" class="st3"/>
		<path id="path2741" d="m 89.04,-363.71 c -2.89,-3.68 -5.78,-7.35 -8.67,-11.03" class="st3"/>
		<path id="path2743" d="m 87.66,-355.65 c -4.61,-5.66 -9.23,-11.32 -13.84,-16.99" class="st3"/>
		<path id="path2745" d="m 76.47,-359.6 c -3.06,-3.62 -6.11,-7.24 -9.17,-10.87" class="st3"/>
		<path id="path2747" d="m 70.21,-357.46 c -3.14,-3.59 -6.28,-7.19 -9.42,-10.78" class="st3"/>
		<path id="path2749" d="m 63.96,-355.26 c -3.22,-3.57 -6.44,-7.13 -9.66,-10.7" class="st3"/>
		<path id="path2751" d="m 57.73,-353 c -3.3,-3.54 -6.61,-7.07 -9.91,-10.61" class="st3"/>
		<path id="path2753" d="m 57.11,-344.89 c -5.25,-5.44 -10.5,-10.87 -15.75,-16.31" class="st4"/>
		<path id="path2755" d="m 45.32,-348.31 c -3.47,-3.47 -6.93,-6.95 -10.4,-10.42" class="st3"/>
		<path id="path2757" d="m 39.14,-345.88 c -3.55,-3.44 -7.1,-6.88 -10.64,-10.32" class="st3"/>
		<path id="path2759" d="m 32.97,-343.38 c -3.63,-3.41 -7.26,-6.82 -10.89,-10.23" class="st3"/>
		<path id="path2761" d="m 26.82,-340.83 c -3.71,-3.38 -7.42,-6.75 -11.13,-10.13" class="st3"/>
		<path id="path2763" d="M 26.96,-332.69 C 21.08,-337.87 15.2,-343.05 9.32,-348.24" class="st3"/>
		<path id="path2765" d="m 14.58,-335.55 c -3.87,-3.31 -7.74,-6.61 -11.61,-9.92" class="st3"/>
		<path id="path2767" d="m 8.49,-332.82 c -3.95,-3.27 -7.9,-6.54 -11.86,-9.81" class="st3"/>
		<path id="path2769" d="m 2.42,-330.03 c -4.03,-3.23 -8.06,-6.47 -12.1,-9.7" class="st3"/>
		<path id="path2771" d="m -3.64,-327.19 c -4.11,-3.2 -8.22,-6.39 -12.33,-9.59" class="st3"/>
		<path id="path2773" d="m -2.74,-319.06 c -6.5,-4.9 -13,-9.79 -19.5,-14.69" class="st4"/>
		<path id="path2775" d="m 619.69,-319.06 c 6.5,-4.9 13,-9.79 19.5,-14.69" class="st4"/>
		<g id="g2779">
			<path id="path2777" d="m 632.47,-420.89 c -0.01,0 -0.03,-0.01 -0.04,-0.01 -1.04,0.06 -2.08,0.12 -3.12,0.18 0.24,-0.4 0.48,-0.81 0.71,-1.21 1.3,-0.07 2.61,-0.14 3.92,-0.21 0.48,0.18 0.96,0.36 1.44,0.55 -3.41,3.51 -6.82,7.02 -10.22,10.54 -0.53,-0.2 -1.06,-0.4 -1.59,-0.6 2.98,-3.09 5.94,-6.17 8.9,-9.24 z" class="st5"/>
		</g>
		<g id="g2787">
			<path id="path2781" d="m 607.13,-424.92 c -3.23,3.67 -6.55,5.16 -9.25,4.23 -2.38,-0.82 -2.32,-3.36 0.69,-6.98 3.08,-3.66 6.62,-5.05 9.19,-4.17 2.66,0.93 2.39,3.48 -0.63,6.92 z m -6.9,-2.15 c -2.41,2.83 -2.79,4.77 -1.29,5.29 1.7,0.58 4.03,-0.88 6.44,-3.65 2.32,-2.66 3.05,-4.69 1.29,-5.29 -1.49,-0.52 -3.91,0.68 -6.44,3.65 z" class="st5"/>
			<path id="path2783" d="m 604.7,-419.68 c 0.54,-0.62 1.4,-0.88 2.06,-0.65 0.66,0.23 0.73,0.82 0.18,1.44 -0.53,0.6 -1.36,0.89 -2.06,0.64 -0.66,-0.23 -0.71,-0.84 -0.18,-1.43 z" class="st5"/>
			<path id="path2785" d="m 609.57,-418.18 c 0.33,0.16 0.77,0.28 1.38,0.43 1.06,0.23 2.28,0.21 3.51,-0.11 1.4,-0.35 2.85,-1.07 4.25,-2.25 -0.02,-0.01 -0.04,-0.01 -0.06,-0.02 -1.35,0.47 -2.73,0.54 -3.96,0.1 -2.21,-0.8 -2.33,-2.76 -0.69,-4.59 1.82,-2.03 5.15,-3.21 7.73,-2.28 2.58,0.93 2.51,3.29 -0.02,6 -2.18,2.34 -4.62,3.65 -6.76,4.23 -1.68,0.46 -3.43,0.49 -4.86,0.15 -0.67,-0.13 -1.21,-0.3 -1.59,-0.46 0.35,-0.4 0.71,-0.8 1.07,-1.2 z m 6.19,-5.95 c -1.21,1.34 -1.13,2.61 0.32,3.13 1.12,0.41 2.43,0.25 3.47,-0.23 0.22,-0.1 0.43,-0.24 0.64,-0.47 1.69,-1.82 2.19,-3.51 0.41,-4.15 -1.46,-0.53 -3.47,0.2 -4.84,1.72 z" class="st5"/>
		</g>
		<g id="g2795">
			<path id="path2789" d="m 580.78,-433.65 c -2.95,3.77 -6.12,5.36 -8.84,4.51 -2.4,-0.74 -2.5,-3.28 0.23,-6.99 2.8,-3.75 6.19,-5.25 8.79,-4.45 2.68,0.84 2.58,3.4 -0.18,6.93 z m -6.93,-1.94 c -2.19,2.9 -2.45,4.85 -0.93,5.32 1.71,0.53 3.91,-1.01 6.11,-3.84 2.12,-2.73 2.71,-4.78 0.93,-5.33 -1.5,-0.47 -3.82,0.81 -6.11,3.85 z" class="st5"/>
			<path id="path2791" d="m 578.73,-428.35 c 0.5,-0.63 1.32,-0.92 1.99,-0.71 0.67,0.21 0.77,0.8 0.27,1.43 -0.49,0.61 -1.29,0.93 -1.98,0.71 -0.67,-0.21 -0.77,-0.82 -0.28,-1.43 z" class="st5"/>
			<path id="path2793" d="m 583.9,-429.11 c 1.11,-1.39 2.84,-2.08 4.84,-2.15 0.01,-0.02 0.01,-0.04 0.02,-0.06 -0.92,-1.02 -0.76,-2.17 0,-3.12 1.4,-1.75 4.05,-2.39 6.27,-1.66 2.46,0.81 2.59,2.55 1.45,3.91 -0.77,0.93 -2.11,1.75 -4.18,1.88 -0.01,0.02 -0.03,0.03 -0.04,0.05 1.11,1.05 1.27,2.33 0.17,3.66 -1.58,1.9 -4.47,2.57 -6.81,1.81 -2.55,-0.83 -3.01,-2.7 -1.72,-4.32 z m 6.72,2.11 c 1.1,-1.33 0.58,-2.32 -0.77,-3.29 -1.76,-0.11 -3.23,0.49 -4.07,1.54 -0.96,1.1 -0.8,2.39 0.77,2.9 1.49,0.48 3.14,-0.02 4.07,-1.15 z m -0.17,-7.01 c -0.89,1.1 -0.42,2 0.75,2.81 1.34,0.03 2.72,-0.37 3.54,-1.36 0.72,-0.88 0.87,-1.99 -0.67,-2.49 -1.42,-0.47 -2.85,0.09 -3.62,1.04 z" class="st5"/>
		</g>
		<g id="g2803">
			<path id="path2797" d="m 547.84,-443.34 c -2.59,3.87 -5.58,5.58 -8.33,4.84 -2.42,-0.65 -2.72,-3.18 -0.35,-6.98 2.45,-3.85 5.66,-5.48 8.28,-4.77 2.71,0.73 2.82,3.29 0.4,6.91 z m -6.98,-1.67 c -1.92,2.98 -2.01,4.93 -0.48,5.34 1.72,0.46 3.77,-1.15 5.7,-4.07 1.86,-2.81 2.27,-4.87 0.48,-5.35 -1.52,-0.4 -3.69,0.97 -5.7,4.08 z" class="st5"/>
			<path id="path2799" d="m 546.24,-437.97 c 0.44,-0.65 1.22,-0.97 1.89,-0.78 0.67,0.19 0.82,0.77 0.38,1.42 -0.43,0.63 -1.19,0.98 -1.89,0.78 -0.66,-0.19 -0.8,-0.79 -0.38,-1.42 z" class="st5"/>
			<path id="path2801" d="m 565.53,-444.97 c -0.24,0.34 -0.48,0.67 -0.72,1.01 -4.29,2.88 -8.53,5.79 -12.71,8.71 -0.58,-0.16 -1.16,-0.33 -1.74,-0.49 4.1,-2.84 8.24,-5.65 12.44,-8.45 0.01,-0.01 0.02,-0.02 0.02,-0.03 -2.08,-0.6 -4.16,-1.19 -6.24,-1.77 0.29,-0.42 0.58,-0.85 0.87,-1.27 2.7,0.74 5.39,1.51 8.08,2.29 z" class="st5"/>
		</g>
		<g id="g2811">
			<path id="path2805" d="m 389.23,-471.86 c -0.88,4.18 -2.96,6.34 -5.78,6.11 -2.48,-0.21 -3.74,-2.6 -3.04,-6.67 0.76,-4.13 3.08,-6.26 5.76,-6.03 2.78,0.22 3.88,2.67 3.06,6.59 z m -7.07,-0.42 c -0.61,3.2 0.07,5.1 1.64,5.24 1.76,0.15 3.01,-1.76 3.66,-4.9 0.62,-3.03 0.2,-5.09 -1.64,-5.24 -1.55,-0.14 -3.02,1.55 -3.66,4.9 z" class="st5"/>
			<path id="path2807" d="m 389.84,-466.41 c 0.15,-0.7 0.75,-1.15 1.44,-1.08 0.69,0.06 1.05,0.6 0.9,1.3 -0.15,0.68 -0.71,1.15 -1.43,1.08 -0.69,-0.07 -1.05,-0.62 -0.91,-1.3 z" class="st5"/>
			<path id="path2809" d="m 398.87,-464.54 c 0.26,-1.11 0.53,-2.23 0.79,-3.34 -1.99,-0.2 -3.97,-0.4 -5.96,-0.59 0.08,-0.37 0.16,-0.73 0.24,-1.1 2.49,-2.43 5.03,-4.85 7.6,-7.27 0.64,0.06 1.28,0.13 1.92,0.2 -0.62,2.54 -1.23,5.08 -1.85,7.62 0.6,0.06 1.2,0.12 1.8,0.19 -0.11,0.43 -0.21,0.87 -0.32,1.3 -0.6,-0.06 -1.2,-0.13 -1.8,-0.19 -0.27,1.11 -0.54,2.23 -0.81,3.34 -0.53,-0.05 -1.07,-0.1 -1.61,-0.16 z m 1.1,-4.64 c 0.32,-1.36 0.65,-2.73 0.97,-4.09 0.15,-0.64 0.32,-1.28 0.52,-1.92 -0.02,0 -0.04,0 -0.06,-0.01 -0.57,0.68 -1.02,1.17 -1.51,1.7 -1.39,1.28 -2.76,2.57 -4.13,3.86 0,0.01 -0.01,0.03 -0.01,0.04 1.41,0.14 2.82,0.28 4.22,0.42 z" class="st5"/>
		</g>
		<g id="g2819">
			<path id="path2813" d="m 305.09,-475.46 c 0.03,4.22 -1.56,6.55 -4.38,6.58 -2.49,0.02 -4.24,-2.22 -4.42,-6.33 -0.14,-4.16 1.7,-6.48 4.38,-6.5 2.79,-0.02 4.4,2.3 4.42,6.25 z m -7.04,0.25 c 0.09,3.23 1.16,5.05 2.73,5.03 1.77,-0.02 2.59,-2.02 2.55,-5.19 -0.04,-3.06 -0.89,-5.06 -2.74,-5.04 -1.55,0.01 -2.63,1.82 -2.54,5.2 z" class="st5"/>
			<path id="path2815" d="m 306.87,-470.11 c 0,-0.71 0.49,-1.2 1.18,-1.2 0.69,0 1.16,0.5 1.16,1.2 0,0.69 -0.45,1.2 -1.18,1.2 -0.69,0 -1.16,-0.52 -1.16,-1.2 z" class="st5"/>
			<path id="path2817" d="m 311.23,-471.05 c 0.49,0.31 1.63,0.79 2.83,0.8 2.22,0.01 2.94,-1.35 2.95,-2.38 0.02,-1.74 -1.6,-2.5 -3.3,-2.51 -0.33,0 -0.65,0 -0.98,-0.01 0,-0.42 0.01,-0.84 0.01,-1.26 0.33,0 0.65,0 0.98,0.01 1.28,0.01 2.91,-0.61 2.95,-2.08 0.02,-0.99 -0.63,-1.88 -2.27,-1.89 -1.05,-0.01 -2.07,0.43 -2.64,0.81 -0.15,-0.41 -0.3,-0.82 -0.46,-1.22 0.69,-0.47 2.03,-0.95 3.46,-0.94 2.6,0.02 3.74,1.48 3.7,2.99 -0.03,1.28 -0.86,2.36 -2.47,2.9 0,0.01 0,0.03 0,0.04 1.59,0.32 2.86,1.48 2.81,3.22 -0.06,1.99 -1.69,3.7 -4.75,3.68 -1.43,-0.01 -2.68,-0.45 -3.31,-0.85 0.16,-0.44 0.32,-0.87 0.49,-1.31 z" class="st5"/>
		</g>
		<g id="g2827">
			<path id="path2821" d="m 507.28,-453.43 c -2.15,3.98 -4.92,5.82 -7.69,5.21 -2.44,-0.54 -3,-3.04 -1.04,-6.95 2.02,-3.95 5.01,-5.72 7.64,-5.14 2.74,0.61 3.1,3.15 1.09,6.88 z m -7.02,-1.34 c -1.58,3.06 -1.48,5.01 0.07,5.35 1.74,0.38 3.58,-1.33 5.18,-4.32 1.54,-2.89 1.74,-4.96 -0.07,-5.36 -1.53,-0.34 -3.52,1.13 -5.18,4.33 z" class="st5"/>
			<path id="path2823" d="m 506.25,-448 c 0.36,-0.67 1.1,-1.02 1.78,-0.87 0.68,0.15 0.89,0.73 0.52,1.39 -0.36,0.65 -1.07,1.03 -1.78,0.87 -0.67,-0.15 -0.87,-0.74 -0.52,-1.39 z" class="st5"/>
			<path id="path2825" d="m 522.81,-455.01 c -0.35,-0.1 -0.81,-0.19 -1.35,-0.24 -2.97,-0.24 -5.43,1.24 -6.8,3.09 0.02,0 0.04,0.01 0.06,0.01 1.02,-0.59 2.42,-0.96 3.84,-0.62 2.26,0.54 2.99,2.4 1.66,4.67 -1.24,2.12 -3.94,3.71 -6.53,3.1 -2.67,-0.63 -3.34,-2.97 -1.66,-6.01 1.28,-2.3 3.19,-3.9 5.1,-4.76 1.6,-0.7 3.37,-0.96 5.1,-0.75 0.56,0.05 1,0.14 1.32,0.21 -0.24,0.44 -0.49,0.87 -0.74,1.3 z m -4.36,6.58 c 0.96,-1.66 0.5,-2.91 -1.09,-3.29 -1.04,-0.25 -2.33,0.12 -3.27,0.86 -0.22,0.15 -0.43,0.37 -0.59,0.65 -1.04,1.93 -0.89,3.57 0.89,3.98 1.46,0.36 3.1,-0.53 4.06,-2.2 z" class="st5"/>
		</g>
		<g id="g2835">
			<path id="path2829" d="m 455.56,-463.47 c -1.59,4.09 -4.06,6.08 -6.86,5.64 -2.46,-0.39 -3.33,-2.86 -1.92,-6.86 1.47,-4.05 4.17,-5.99 6.83,-5.57 2.75,0.44 3.44,2.96 1.95,6.79 z m -7.05,-0.93 c -1.15,3.14 -0.8,5.08 0.76,5.33 1.75,0.28 3.34,-1.53 4.52,-4.6 1.14,-2.96 1.06,-5.04 -0.76,-5.33 -1.54,-0.26 -3.31,1.31 -4.52,4.6 z" class="st5"/>
			<path id="path2831" d="m 455.26,-458 c 0.27,-0.69 0.95,-1.08 1.63,-0.97 0.68,0.11 0.96,0.67 0.69,1.36 -0.27,0.66 -0.91,1.09 -1.63,0.97 -0.68,-0.12 -0.95,-0.7 -0.69,-1.36 z" class="st5"/>
			<path id="path2833" d="m 470.81,-465.67 c -1.65,-0.3 -3.3,-0.59 -4.95,-0.87 -0.59,1 -1.18,2 -1.76,2.99 0.31,0.01 0.6,0.03 1.08,0.11 0.99,0.17 1.9,0.55 2.5,1.13 0.78,0.71 1.17,1.89 0.53,3.4 -1,2.33 -3.7,3.73 -6.44,3.25 -1.38,-0.24 -2.39,-0.81 -2.85,-1.28 0.31,-0.39 0.62,-0.78 0.93,-1.16 0.41,0.39 1.29,0.93 2.44,1.13 1.61,0.28 3.42,-0.47 4.09,-2.07 0.63,-1.55 0,-2.85 -2.57,-3.3 -0.73,-0.13 -1.33,-0.15 -1.83,-0.18 1.06,-1.87 2.12,-3.74 3.18,-5.61 2.08,0.36 4.16,0.72 6.23,1.1 -0.19,0.46 -0.39,0.91 -0.58,1.36 z" class="st5"/>
		</g>
		<g id="g2843">
			<path id="path2837" d="m 199.39,-468.89 c 1.17,4.15 0.22,6.63 -2.58,6.98 -2.47,0.31 -4.83,-1.69 -6.12,-5.71 -1.26,-4.08 -0.06,-6.58 2.61,-6.91 2.77,-0.34 4.99,1.76 6.09,5.64 z m -6.95,1.07 c 0.96,3.17 2.52,4.83 4.09,4.63 1.76,-0.22 2.03,-2.29 1.14,-5.41 -0.86,-3 -2.26,-4.87 -4.09,-4.64 -1.56,0.2 -2.15,2.1 -1.14,5.42 z" class="st5"/>
			<path id="path2839" d="m 202.6,-463.84 c -0.19,-0.7 0.16,-1.24 0.85,-1.32 0.69,-0.08 1.29,0.35 1.48,1.05 0.18,0.68 -0.13,1.24 -0.85,1.32 -0.68,0.08 -1.29,-0.37 -1.48,-1.05 z" class="st5"/>
			<path id="path2841" d="m 206.78,-463.32 c -0.09,-0.34 -0.18,-0.68 -0.27,-1.02 0.34,-0.47 0.68,-0.94 1.02,-1.41 2.48,-3.34 3.59,-5.08 3.14,-6.93 -0.31,-1.24 -1.25,-2.32 -3.2,-2.11 -1.19,0.13 -2.02,0.81 -2.5,1.35 -0.29,-0.37 -0.58,-0.73 -0.87,-1.1 0.71,-0.82 1.87,-1.49 3.38,-1.66 2.83,-0.31 4.47,1.38 4.9,3.13 0.56,2.26 -0.73,4.27 -2.78,7.05 -0.26,0.34 -0.52,0.68 -0.79,1.02 0,0.01 0.01,0.02 0.01,0.04 1.91,-0.21 3.82,-0.42 5.73,-0.62 0.11,0.46 0.23,0.92 0.34,1.38 -2.71,0.28 -5.41,0.57 -8.11,0.88 z" class="st5"/>
		</g>
		<g id="g2851">
			<path id="path2845" d="m 68.51,-443.17 c 2.59,3.87 2.45,6.44 -0.29,7.2 -2.42,0.68 -5.5,-0.93 -8.15,-4.65 -2.65,-3.79 -2.26,-6.41 0.35,-7.14 2.7,-0.76 5.67,0.96 8.09,4.59 z m -6.72,2.08 c 2.04,2.94 4.19,4.34 5.72,3.91 1.72,-0.48 1.3,-2.54 -0.65,-5.45 -1.89,-2.8 -3.93,-4.42 -5.72,-3.92 -1.53,0.43 -1.49,2.38 0.65,5.46 z" class="st5"/>
			<path id="path2847" d="m 73.48,-438.73 c -0.43,-0.65 -0.25,-1.24 0.42,-1.42 0.67,-0.18 1.43,0.15 1.86,0.8 0.41,0.63 0.29,1.22 -0.42,1.42 -0.67,0.18 -1.44,-0.17 -1.86,-0.8 z" class="st5"/>
			<path id="path2849" d="m 75.16,-449.83 c -0.01,0 -0.03,0.01 -0.04,0.01 -0.51,0.55 -1.02,1.11 -1.53,1.66 -0.37,-0.36 -0.73,-0.73 -1.1,-1.09 0.64,-0.69 1.29,-1.39 1.94,-2.08 0.49,-0.13 0.99,-0.26 1.48,-0.39 2.42,3.83 4.85,7.65 7.27,11.48 -0.54,0.14 -1.09,0.28 -1.63,0.43 -2.13,-3.34 -4.26,-6.68 -6.39,-10.02 z" class="st5"/>
		</g>
		<g id="g2855">
			<path id="path2853" d="m -84.75,-385.84 c 4.24,3.26 5.1,5.76 2.49,7.03 -2.29,1.12 -6.18,0.16 -10.44,-2.94 -4.28,-3.16 -4.88,-5.77 -2.4,-6.98 2.57,-1.25 6.38,-0.16 10.35,2.89 z m -6.31,3.31 c 3.3,2.46 6.12,3.39 7.57,2.69 1.63,-0.79 0.39,-2.71 -2.81,-5.15 -3.08,-2.35 -5.87,-3.52 -7.57,-2.7 -1.44,0.7 -0.65,2.58 2.81,5.16 z" class="st5"/>
		</g>
		<g id="g2859">
			<path id="path2857" d="m 708.37,-379.96 c -1.93,0.28 -3.99,0.62 -5.47,-0.1 -1.53,-0.75 -1.42,-2.19 0.24,-3.45 1.53,-1.16 4.04,-1.6 5.67,-0.8 1.37,0.67 1.23,2.03 1.16,3.16 1.94,-0.28 4.02,-0.6 5.51,0.14 1.57,0.78 1.42,2.22 -0.3,3.45 -1.58,1.13 -4.11,1.54 -5.71,0.74 -1.33,-0.66 -1.17,-2.01 -1.1,-3.14 z m 0.07,-0.96 c -0.01,-0.87 0.26,-2 -0.81,-2.53 -0.92,-0.45 -2.42,-0.19 -3.33,0.5 -0.99,0.75 -1.05,1.61 -0.15,2.04 1.03,0.52 2.83,0.22 4.29,-0.01 z m 5.6,2.79 c 1.01,-0.73 1.09,-1.6 0.19,-2.05 -1.05,-0.52 -2.86,-0.23 -4.32,-0.01 0.01,0.88 -0.27,2 0.78,2.52 0.91,0.46 2.41,0.21 3.35,-0.46 z" class="st5"/>
		</g>
		<g id="g2863">
			<path id="path2861" d="m 686.56,-385.1 c 0.34,-0.27 0.68,-0.54 1.01,-0.81 0.84,-0.14 1.68,-0.27 2.52,-0.41 6.02,-0.92 9.02,-1.49 10.91,-2.93 1.26,-0.98 1.82,-2.16 0.01,-3.02 -1.1,-0.52 -2.59,-0.51 -3.62,-0.4 0.21,-0.39 0.43,-0.78 0.64,-1.17 1.56,-0.17 3.29,-0.02 4.7,0.64 2.63,1.25 1.9,3.2 0.12,4.57 -2.3,1.77 -5.77,2.42 -10.77,3.2 -0.62,0.09 -1.24,0.18 -1.86,0.26 -0.01,0.01 -0.02,0.02 -0.04,0.03 1.78,0.84 3.55,1.68 5.33,2.53 -0.47,0.36 -0.93,0.72 -1.4,1.08 -2.51,-1.21 -5.03,-2.4 -7.55,-3.57 z" class="st5"/>
		</g>
		<g id="g2871">
			<path id="path2865" d="m 669.88,-405.83 c -0.01,-0.01 -0.03,-0.01 -0.04,-0.02 -1.07,0.01 -2.13,0.02 -3.2,0.04 0.28,-0.39 0.56,-0.79 0.84,-1.18 1.34,-0.01 2.68,-0.02 4.02,-0.03 0.48,0.2 0.95,0.41 1.43,0.61 -3.8,3.35 -7.6,6.71 -11.4,10.06 -0.52,-0.22 -1.04,-0.45 -1.57,-0.67 3.31,-2.94 6.61,-5.87 9.92,-8.81 z" class="st5"/>
			<path id="path2867" d="m 666.93,-395.2 c 0.66,-0.57 1.58,-0.77 2.23,-0.48 0.65,0.28 0.63,0.88 -0.04,1.45 -0.64,0.55 -1.55,0.78 -2.23,0.48 -0.64,-0.29 -0.6,-0.9 0.04,-1.45 z" class="st5"/>
			<path id="path2869" d="m 687.32,-398.33 c -1.56,-0.7 -3.11,-1.4 -4.67,-2.1 -1.16,0.78 -2.32,1.56 -3.48,2.34 0.32,0.09 0.61,0.18 1.06,0.38 0.93,0.42 1.67,1.01 1.98,1.71 0.42,0.87 0.18,2.07 -1.32,3.31 -2.33,1.92 -5.91,2.52 -8.49,1.37 -1.3,-0.58 -2.04,-1.37 -2.25,-1.93 0.54,-0.28 1.07,-0.56 1.61,-0.85 0.21,0.47 0.82,1.2 1.91,1.69 1.52,0.68 3.81,0.45 5.4,-0.87 1.51,-1.28 1.57,-2.67 -0.86,-3.75 -0.69,-0.31 -1.3,-0.49 -1.8,-0.64 2.13,-1.47 4.26,-2.95 6.4,-4.42 1.96,0.87 3.92,1.75 5.88,2.64 -0.47,0.37 -0.92,0.75 -1.37,1.12 z" class="st5"/>
		</g>
		<g id="g3081">
			<path id="path2873" d="m 673.85,-359.86 c -230.61,-112.3 -500.14,-112.3 -730.75,0" class="st6"/>
			<path id="path2875" d="m -56.9,-359.86 c -6.35,-4.78 -12.7,-9.57 -19.05,-14.35" class="st7"/>
			<path id="path2877" d="m 89.65,-414.9 c -3.8,-5.74 -7.61,-11.48 -11.41,-17.22" class="st7"/>
			<path id="path2879" d="m 210.38,-438.31 c -1.71,-6.15 -3.41,-12.3 -5.12,-18.44" class="st7"/>
			<path id="path2881" d="m 307.57,-444.09 c -0.02,-6.25 -0.03,-12.5 -0.05,-18.75" class="st7"/>
			<path id="path2883" d="m 384.82,-440.59 c 1.33,-6.19 2.65,-12.38 3.98,-18.56" class="st7"/>
			<path id="path2885" d="m 445.86,-432.71 c 2.39,-6.05 4.78,-12.1 7.17,-18.15" class="st7"/>
			<path id="path2887" d="m 494.01,-423.22 c 3.23,-5.89 6.45,-11.77 9.68,-17.66" class="st7"/>
			<path id="path2889" d="m 531.79,-413.67 c 3.88,-5.72 7.76,-11.44 11.65,-17.16" class="st7"/>
			<path id="path2891" d="m 561.58,-404.8 c 4.4,-5.57 8.8,-11.13 13.2,-16.7" class="st7"/>
			<path id="path2893" d="m 585.03,-396.95 c 4.81,-5.43 9.62,-10.86 14.42,-16.29" class="st7"/>
			<path id="path2895" d="m 603.57,-390.18 c 5.13,-5.31 10.26,-10.62 15.39,-15.94" class="st7"/>
			<path id="path2897" d="m 666.92,-363.2 c 6.23,-4.84 12.46,-9.69 18.69,-14.53" class="st7"/>
			<path id="path2899" d="m 673.85,-359.86 c 6.35,-4.78 12.7,-9.57 19.05,-14.35" class="st7"/>
			<path id="path2901" d="M 20.41,-392.81 C 15.4,-398.17 10.39,-403.52 5.39,-408.88" class="st6"/>
			<path id="path2903" d="m 4.75,-386.87 c -3.98,-3.96 -7.96,-7.92 -11.94,-11.88" class="st6"/>
			<path id="path2905" d="m -10.81,-380.61 c -4.18,-3.88 -8.37,-7.76 -12.55,-11.63" class="st6"/>
			<path id="path2907" d="m -26.28,-374.02 c -4.39,-3.79 -8.77,-7.58 -13.16,-11.37" class="st6"/>
			<path id="path2909" d="m -41.65,-367.1 c -4.59,-3.7 -9.17,-7.4 -13.76,-11.1" class="st6"/>
			<path id="path2911" d="m 75.68,-410.98 c -3.05,-4.28 -6.1,-8.55 -9.15,-12.83" class="st6"/>
			<path id="path2913" d="m 61.78,-406.81 c -3.23,-4.22 -6.46,-8.44 -9.7,-12.66" class="st6"/>
			<path id="path2915" d="m 47.93,-402.39 c -3.41,-4.16 -6.83,-8.33 -10.24,-12.49" class="st6"/>
			<path id="path2917" d="m 34.14,-397.72 c -3.59,-4.1 -7.19,-8.2 -10.78,-12.31" class="st6"/>
			<path id="path2919" d="m 153.17,-429.52 c -2.7,-6 -5.4,-11.99 -8.1,-17.99" class="st6"/>
			<path id="path2921" d="m 140.39,-427 c -2.2,-4.49 -4.4,-8.97 -6.61,-13.46" class="st6"/>
			<path id="path2923" d="m 127.65,-424.28 c -2.37,-4.45 -4.74,-8.9 -7.11,-13.35" class="st6"/>
			<path id="path2925" d="m 114.95,-421.35 c -2.54,-4.41 -5.07,-8.82 -7.61,-13.23" class="st6"/>
			<path id="path2927" d="m 102.28,-418.23 c -2.7,-4.37 -5.4,-8.74 -8.1,-13.11" class="st6"/>
			<path id="path2929" d="m 198.9,-436.87 c -1.44,-4.61 -2.87,-9.23 -4.31,-13.84" class="st6"/>
			<path id="path2931" d="m 187.44,-435.27 c -1.59,-4.59 -3.17,-9.19 -4.76,-13.78" class="st6"/>
			<path id="path2933" d="m 175.99,-433.52 c -1.74,-4.57 -3.47,-9.14 -5.21,-13.71" class="st6"/>
			<path id="path2935" d="m 164.57,-431.6 c -1.89,-4.55 -3.77,-9.09 -5.66,-13.64" class="st6"/>
			<path id="path2937" d="m 251.47,-442.14 c -0.75,-4.68 -1.49,-9.37 -2.24,-14.05" class="st6"/>
			<path id="path2939" d="m 241.19,-441.38 c -0.88,-4.67 -1.76,-9.35 -2.64,-14.02" class="st6"/>
			<path id="path2941" d="m 230.91,-440.48 c -1.02,-4.66 -2.03,-9.32 -3.05,-13.99" class="st6"/>
			<path id="path2943" d="m 220.64,-439.46 c -1.15,-4.65 -2.3,-9.3 -3.45,-13.95" class="st6"/>
			<path id="path2945" d="m 261.77,-442.78 c -0.81,-6.23 -1.62,-12.45 -2.44,-18.68" class="st6"/>
			<path id="path2947" d="m 298.41,-444.03 c -0.13,-4.71 -0.26,-9.42 -0.4,-14.13" class="st6"/>
			<path id="path2949" d="m 289.25,-443.87 c -0.25,-4.71 -0.5,-9.41 -0.76,-14.12" class="st6"/>
			<path id="path2951" d="m 280.08,-443.61 c -0.37,-4.7 -0.74,-9.41 -1.12,-14.11" class="st6"/>
			<path id="path2953" d="m 270.92,-443.25 c -0.49,-4.7 -0.98,-9.4 -1.48,-14.1" class="st6"/>
			<path id="path2955" d="m 348.51,-443.13 c 0.7,-6.23 1.39,-12.46 2.09,-18.7" class="st6"/>
			<path id="path2957" d="m 340.33,-443.48 c 0.42,-4.7 0.83,-9.4 1.25,-14.1" class="st6"/>
			<path id="path2959" d="m 332.14,-443.76 c 0.31,-4.71 0.62,-9.41 0.93,-14.12" class="st6"/>
			<path id="path2961" d="m 323.95,-443.95 c 0.2,-4.71 0.41,-9.42 0.61,-14.12" class="st6"/>
			<path id="path2963" d="m 315.76,-444.06 c 0.1,-4.71 0.19,-9.42 0.29,-14.13" class="st6"/>
			<path id="path2965" d="m 377.56,-441.23 c 0.91,-4.67 1.81,-9.34 2.72,-14.02" class="st6"/>
			<path id="path2967" d="m 370.3,-441.8 c 0.81,-4.68 1.62,-9.36 2.43,-14.04" class="st6"/>
			<path id="path2969" d="m 363.04,-442.31 c 0.71,-4.69 1.43,-9.37 2.14,-14.06" class="st6"/>
			<path id="path2971" d="m 355.78,-442.75 c 0.62,-4.69 1.24,-9.38 1.86,-14.08" class="st6"/>
			<path id="path2973" d="m 417.14,-436.99 c 1.89,-6.13 3.78,-12.25 5.67,-18.38" class="st6"/>
			<path id="path2975" d="m 410.68,-437.81 c 1.34,-4.63 2.68,-9.25 4.02,-13.88" class="st6"/>
			<path id="path2977" d="m 404.22,-438.58 c 1.25,-4.64 2.51,-9.27 3.76,-13.91" class="st6"/>
			<path id="path2979" d="m 397.76,-439.3 c 1.17,-4.65 2.34,-9.29 3.51,-13.94" class="st6"/>
			<path id="path2981" d="m 391.29,-439.97 c 1.08,-4.66 2.17,-9.31 3.26,-13.97" class="st6"/>
			<path id="path2983" d="m 440.13,-433.65 c 1.72,-4.57 3.45,-9.15 5.17,-13.72" class="st6"/>
			<path id="path2985" d="m 434.39,-434.54 c 1.65,-4.58 3.3,-9.17 4.95,-13.75" class="st6"/>
			<path id="path2987" d="m 428.64,-435.4 c 1.57,-4.6 3.15,-9.19 4.72,-13.79" class="st6"/>
			<path id="path2989" d="m 422.89,-436.22 c 1.5,-4.61 3,-9.21 4.5,-13.82" class="st6"/>
			<path id="path2991" d="m 471.39,-428.04 c 2.83,-5.97 5.66,-11.94 8.5,-17.91" class="st6"/>
			<path id="path2993" d="m 466.29,-429.04 c 2.07,-4.51 4.14,-9.02 6.2,-13.54" class="st6"/>
			<path id="path2995" d="m 461.19,-430.01 c 2,-4.52 4,-9.05 6,-13.57" class="st6"/>
			<path id="path2997" d="m 456.09,-430.94 c 1.93,-4.54 3.87,-9.07 5.8,-13.61" class="st6"/>
			<path id="path2999" d="m 450.98,-431.84 c 1.87,-4.55 3.73,-9.1 5.6,-13.65" class="st6"/>
			<path id="path3001" d="m 489.5,-424.23 c 2.37,-4.45 4.74,-8.9 7.11,-13.35" class="st6"/>
			<path id="path3003" d="m 484.97,-425.22 c 2.31,-4.46 4.62,-8.92 6.94,-13.39" class="st6"/>
			<path id="path3005" d="m 480.45,-426.19 c 2.25,-4.47 4.51,-8.95 6.76,-13.42" class="st6"/>
			<path id="path3007" d="m 475.92,-427.13 c 2.19,-4.49 4.39,-8.97 6.58,-13.46" class="st6"/>
			<path id="path3009" d="m 514.05,-418.39 c 3.57,-5.8 7.15,-11.6 10.72,-17.41" class="st6"/>
			<path id="path3011" d="m 510.05,-419.39 c 2.64,-4.39 5.28,-8.77 7.92,-13.16" class="st6"/>
			<path id="path3013" d="m 506.05,-420.38 c 2.59,-4.4 5.18,-8.8 7.77,-13.2" class="st6"/>
			<path id="path3015" d="m 502.04,-421.34 c 2.54,-4.41 5.07,-8.82 7.61,-13.23" class="st6"/>
			<path id="path3017" d="m 498.03,-422.29 c 2.48,-4.42 4.97,-8.85 7.45,-13.27" class="st6"/>
			<path id="path3019" d="m 528.25,-414.65 c 2.88,-4.32 5.76,-8.65 8.64,-12.97" class="st6"/>
			<path id="path3021" d="m 524.7,-415.6 c 2.83,-4.34 5.67,-8.67 8.5,-13.01" class="st6"/>
			<path id="path3023" d="m 521.16,-416.55 c 2.79,-4.35 5.57,-8.7 8.36,-13.05" class="st6"/>
			<path id="path3025" d="m 517.61,-417.47 c 2.74,-4.36 5.48,-8.72 8.22,-13.08" class="st6"/>
			<path id="path3027" d="m 547.63,-409.1 c 4.16,-5.64 8.32,-11.28 12.47,-16.92" class="st6"/>
			<path id="path3029" d="m 544.47,-410.04 c 3.09,-4.26 6.18,-8.53 9.28,-12.79" class="st6"/>
			<path id="path3031" d="m 541.3,-410.97 c 3.05,-4.28 6.1,-8.55 9.15,-12.83" class="st6"/>
			<path id="path3033" d="m 538.13,-411.88 c 3.01,-4.29 6.02,-8.57 9.03,-12.86" class="st6"/>
			<path id="path3035" d="m 534.96,-412.78 c 2.97,-4.3 5.93,-8.6 8.9,-12.9" class="st6"/>
			<path id="path3037" d="m 558.79,-405.68 c 3.28,-4.21 6.56,-8.41 9.84,-12.62" class="st6"/>
			<path id="path3039" d="m 556.01,-406.55 c 3.24,-4.22 6.49,-8.44 9.73,-12.65" class="st6"/>
			<path id="path3041" d="m 553.22,-407.41 c 3.21,-4.23 6.41,-8.46 9.62,-12.69" class="st6"/>
			<path id="path3043" d="m 550.43,-408.26 c 3.17,-4.24 6.34,-8.48 9.51,-12.72" class="st6"/>
			<path id="path3045" d="m 580.35,-398.57 c 3.56,-4.11 7.12,-8.23 10.69,-12.34" class="st6"/>
			<path id="path3047" d="m 575.67,-400.17 c 3.5,-4.13 7,-8.27 10.5,-12.4" class="st6"/>
			<path id="path3049" d="m 570.98,-401.74 c 3.44,-4.15 6.88,-8.31 10.32,-12.46" class="st6"/>
			<path id="path3051" d="m 566.28,-403.28 c 3.38,-4.17 6.76,-8.35 10.13,-12.52" class="st6"/>
			<path id="path3053" d="m 599.88,-391.57 c 3.82,-4.02 7.64,-8.04 11.45,-12.06" class="st6"/>
			<path id="path3055" d="m 596.17,-392.94 c 3.77,-4.04 7.54,-8.08 11.31,-12.12" class="st6"/>
			<path id="path3057" d="m 592.46,-394.3 c 3.72,-4.06 7.44,-8.11 11.16,-12.17" class="st6"/>
			<path id="path3059" d="m 588.75,-395.63 c 3.67,-4.07 7.34,-8.15 11.02,-12.22" class="st6"/>
			<path id="path3061" d="m 634.6,-377.74 c 4.27,-3.84 8.55,-7.68 12.82,-11.52" class="st6"/>
			<path id="path3063" d="m 651.92,-370.15 c 5.97,-4.96 11.94,-9.93 17.91,-14.89" class="st7"/>
			<path id="path3065" d="m 629.75,-379.78 c 5.59,-5.13 11.17,-10.26 16.76,-15.39" class="st6"/>
			<path id="path3067" d="m 618.2,-384.5 c 5.38,-5.21 10.77,-10.43 16.15,-15.64" class="st6"/>
			<path id="path3069" d="m 646.14,-372.74 c 5.87,-5.01 11.74,-10.02 17.61,-15.03" class="st6"/>
			<path id="path3071" d="m 638.91,-375.89 c 5.74,-5.06 11.49,-10.13 17.23,-15.19" class="st6"/>
			<path id="path3073" d="m 611.33,-387.21 c 3.97,-3.96 7.94,-7.93 11.9,-11.89" class="st6"/>
			<path id="path3075" d="m 624.27,-382.04 c 4.14,-3.9 8.27,-7.79 12.41,-11.69" class="st6"/>
			<path id="path3077" d="m 642.81,-374.2 c 4.38,-3.79 8.76,-7.59 13.14,-11.38" class="st6"/>
			<path id="path3079" d="m 649.15,-371.4 c 4.46,-3.76 8.93,-7.51 13.39,-11.27" class="st6"/>
		</g>
		
			<linearGradient gradientTransform="matrix(1,0,0,-1,0,792)" y2="978.21191" x2="585.69177" y1="1298.9487" x1="30.1593" gradientUnits="userSpaceOnUse" id="SVGID_2_">
			<stop id="stop3083" style="stop-color:#FFFFFF" offset="0"/>
			<stop id="stop3085" style="stop-color:#BCBEC0" offset="1"/>
		</linearGradient>
		<path style="fill:url(#SVGID_2_)" id="path3088" d="m 659.54,-333.85 c -220.58,-112.25 -481.55,-112.25 -702.13,0 -6.43,-4.56 -12.86,-9.13 -19.29,-13.69 232.7,-118.41 508,-118.41 740.71,0 -6.43,4.56 -12.86,9.13 -19.29,13.69 z" class="st8"/>
	</g>
</g>

<text y="77.799507" x="16.352203" id="text3096" style="font-size:36px;font-family:Arial-Black" class="st5">ABS</text>
<text y="223.5043" x="620.84601" id="text3098" style="font-size:36px;font-family:Arial-Black">TRANS</text>




<radialGradient gradientUnits="userSpaceOnUse" gradientTransform="matrix(1,0,0,-1,0,792)" fy="984.23621" fx="68.498199" r="57.430698" cy="1006.5566" cx="97.104202" id="SVGID_3_">
	<stop id="stop3142" style="stop-color:#FFFFFF" offset="0"/>
	<stop id="stop3144" style="stop-color:#FCFEFB" offset="0.1362"/>
	<stop id="stop3146" style="stop-color:#F5FAEE" offset="0.2808"/>
	<stop id="stop3148" style="stop-color:#E8F4D9" offset="0.4291"/>
	<stop id="stop3150" style="stop-color:#D7EBBB" offset="0.5801"/>
	<stop id="stop3152" style="stop-color:#C0DF95" offset="0.7332"/>
	<stop id="stop3154" style="stop-color:#A5D267" offset="0.8858"/>
	<stop id="stop3156" style="stop-color:#8DC63F" offset="1"/>
</radialGradient>

<radialGradient gradientUnits="userSpaceOnUse" gradientTransform="matrix(1,0,0,-1,0,792)" fy="998.15271" fx="105.8094" r="23.5245" cy="997.67767" cx="105.4132" id="SVGID_4_">
	<stop id="stop3161" style="stop-color:#E2EDC1" offset="0"/>
	<stop id="stop3163" style="stop-color:#DFEBBF" offset="0.1803"/>
	<stop id="stop3165" style="stop-color:#D5E5B6" offset="0.3287"/>
	<stop id="stop3167" style="stop-color:#C5DCA9" offset="0.4657"/>
	<stop id="stop3169" style="stop-color:#AFD198" offset="0.596"/>
	<stop id="stop3171" style="stop-color:#92C384" offset="0.7214"/>
	<stop id="stop3173" style="stop-color:#6EB56B" offset="0.8433"/>
	<stop id="stop3175" style="stop-color:#33A651" offset="0.9601"/>
	<stop id="stop3177" style="stop-color:#00A14B" offset="1"/>
</radialGradient>












<linearGradient gradientTransform="matrix(1,0,0,-1,0,792)" y2="859.61768" x2="386.83221" y1="859.61768" x1="292.64529" gradientUnits="userSpaceOnUse" id="SVGID_5_">
	<stop id="stop3236" style="stop-color:#A7A9AC" offset="9.304333e-03"/>
	<stop id="stop3238" style="stop-color:#FFFFFF" offset="0.3771"/>
	<stop id="stop3240" style="stop-color:#F2F2F2" offset="0.4331"/>
	<stop id="stop3242" style="stop-color:#CFCFCF" offset="0.537"/>
	<stop id="stop3244" style="stop-color:#979797" offset="0.6774"/>
	<stop id="stop3246" style="stop-color:#4B4B4B" offset="0.847"/>
	<stop id="stop3248" style="stop-color:#000000" offset="1"/>
</linearGradient>



<linearGradient gradientTransform="matrix(1,0,0,-1,0,792)" y2="931.24323" x2="349.66119" y1="912.96228" x1="349.67139" gradientUnits="userSpaceOnUse" id="SVGID_6_">
	<stop id="stop3257" style="stop-color:#FFFFFF" offset="0"/>
	<stop id="stop3259" style="stop-color:#9C9C9C" offset="0.3497"/>
	<stop id="stop3261" style="stop-color:#484848" offset="0.6681"/>
	<stop id="stop3263" style="stop-color:#141414" offset="0.8912"/>
	<stop id="stop3265" style="stop-color:#000000" offset="1"/>
</linearGradient>

<linearGradient gradientTransform="matrix(1,0,0,-1,0,792)" y2="802.27759" x2="364.86069" y1="802.27759" x1="321.17111" gradientUnits="userSpaceOnUse" id="SVGID_7_">
	<stop id="stop3270" style="stop-color:#FFFFFF" offset="0"/>
	<stop id="stop3272" style="stop-color:#F6F6F6" offset="7.380247e-03"/>
	<stop id="stop3274" style="stop-color:#C8C8C8" offset="0.0477"/>
	<stop id="stop3276" style="stop-color:#9D9D9D" offset="0.0931"/>
	<stop id="stop3278" style="stop-color:#777777" offset="0.1419"/>
	<stop id="stop3280" style="stop-color:#575757" offset="0.195"/>
	<stop id="stop3282" style="stop-color:#3B3B3B" offset="0.2537"/>
	<stop id="stop3284" style="stop-color:#252525" offset="0.32"/>
	<stop id="stop3286" style="stop-color:#141414" offset="0.3974"/>
	<stop id="stop3288" style="stop-color:#090909" offset="0.4931"/>
	<stop id="stop3290" style="stop-color:#020202" offset="0.6274"/>
	<stop id="stop3292" style="stop-color:#000000" offset="1"/>
</linearGradient>







</svg>
